<svg viewBox="0 0 1200 800" xmlns="http://www.w3.org/2000/svg">
  <!-- Background -->
  <rect width="1200" height="800" fill="#f8f9fa"/>
  
  <!-- Title -->
  <text x="600" y="30" text-anchor="middle" font-size="24" font-weight="bold" fill="#2c3e50">
    Linux Kernel Optimization Framework Architecture
  </text>
  
  <!-- Workload Input Layer -->
  <rect x="50" y="80" width="1100" height="80" fill="#e3f2fd" stroke="#1976d2" stroke-width="2" rx="10"/>
  <text x="600" y="110" text-anchor="middle" font-size="16" font-weight="bold" fill="#1976d2">Workload Input Layer</text>
  <text x="150" y="135" font-size="12" fill="#1976d2">Database Servers</text>
  <text x="350" y="135" font-size="12" fill="#1976d2">Web Applications</text>
  <text x="550" y="135" font-size="12" fill="#1976d2">HPC Tasks</text>
  <text x="750" y="135" font-size="12" fill="#1976d2">I/O Intensive</text>
  <text x="950" y="135" font-size="12" fill="#1976d2">Network Services</text>
  
  <!-- Performance Monitor -->
  <rect x="50" y="200" width="250" height="120" fill="#fff3e0" stroke="#f57c00" stroke-width="2" rx="10"/>
  <text x="175" y="230" text-anchor="middle" font-size="14" font-weight="bold" fill="#f57c00">Performance Monitor</text>
  <text x="65" y="250" font-size="11" fill="#f57c00">• CPU Utilization</text>
  <text x="65" y="265" font-size="11" fill="#f57c00">• Memory Usage</text>
  <text x="65" y="280" font-size="11" fill="#f57c00">• I/O Throughput</text>
  <text x="65" y="295" font-size="11" fill="#f57c00">• Network Latency</text>
  <text x="65" y="310" font-size="11" fill="#f57c00">• Response Time</text>
  
  <!-- Workload Analyzer -->
  <rect x="350" y="200" width="250" height="120" fill="#f3e5f5" stroke="#7b1fa2" stroke-width="2" rx="10"/>
  <text x="475" y="230" text-anchor="middle" font-size="14" font-weight="bold" fill="#7b1fa2">Workload Analyzer</text>
  <text x="365" y="250" font-size="11" fill="#7b1fa2">• Pattern Recognition</text>
  <text x="365" y="265" font-size="11" fill="#7b1fa2">• Load Classification</text>
  <text x="365" y="280" font-size="11" fill="#7b1fa2">• Trend Analysis</text>
  <text x="365" y="295" font-size="11" fill="#7b1fa2">• Resource Profiling</text>
  <text x="365" y="310" font-size="11" fill="#7b1fa2">• Bottleneck Detection</text>
  
  <!-- Parameter Selector -->
  <rect x="650" y="200" width="250" height="120" fill="#e8f5e8" stroke="#388e3c" stroke-width="2" rx="10"/>
  <text x="775" y="230" text-anchor="middle" font-size="14" font-weight="bold" fill="#388e3c">Parameter Selector</text>
  <text x="665" y="250" font-size="11" fill="#388e3c">• vm.swappiness</text>
  <text x="665" y="265" font-size="11" fill="#388e3c">• cpu.sched_*</text>
  <text x="665" y="280" font-size="11" fill="#388e3c">• net.core.rmem_max</text>
  <text x="665" y="295" font-size="11" fill="#388e3c">• fs.file-max</text>
  <text x="665" y="310" font-size="11" fill="#388e3c">• vm.dirty_ratio</text>
  
  <!-- Optimization Engine (Central Component) -->
  <rect x="400" y="360" width="400" height="200" fill="#ffebee" stroke="#d32f2f" stroke-width="3" rx="15"/>
  <text x="600" y="390" text-anchor="middle" font-size="18" font-weight="bold" fill="#d32f2f">Hybrid Optimization Engine</text>
  
  <!-- Bayesian Optimization Module -->
  <rect x="420" y="410" width="160" height="80" fill="#e1f5fe" stroke="#0277bd" stroke-width="2" rx="8"/>
  <text x="500" y="435" text-anchor="middle" font-size="12" font-weight="bold" fill="#0277bd">Bayesian Optimization</text>
  <text x="430" y="450" font-size="10" fill="#0277bd">• Gaussian Process</text>
  <text x="430" y="465" font-size="10" fill="#0277bd">• Acquisition Function</text>
  <text x="430" y="480" font-size="10" fill="#0277bd">• Sample Efficient</text>
  
  <!-- Genetic Algorithm Module -->
  <rect x="620" y="410" width="160" height="80" fill="#f1f8e9" stroke="#558b2f" stroke-width="2" rx="8"/>
  <text x="700" y="435" text-anchor="middle" font-size="12" font-weight="bold" fill="#558b2f">Genetic Algorithm</text>
  <text x="630" y="450" font-size="10" fill="#558b2f">• Population-based</text>
  <text x="630" y="465" font-size="10" fill="#558b2f">• Global Exploration</text>
  <text x="630" y="480" font-size="10" fill="#558b2f">• Mutation/Crossover</text>
  
  <!-- Decision Logic -->
  <rect x="480" y="510" width="240" height="30" fill="#fff8e1" stroke="#fbc02d" stroke-width="2" rx="5"/>
  <text x="600" y="530" text-anchor="middle" font-size="12" font-weight="bold" fill="#fbc02d">Hybrid Decision Logic</text>
  
  <!-- Kernel Interface Layer -->
  <rect x="50" y="600" width="1100" height="80" fill="#fce4ec" stroke="#c2185b" stroke-width="2" rx="10"/>
  <text x="600" y="625" text-anchor="middle" font-size="16" font-weight="bold" fill="#c2185b">Kernel Interface Layer</text>
  <text x="150" y="650" font-size="12" fill="#c2185b">/proc/sys</text>
  <text x="300" y="650" font-size="12" fill="#c2185b">/sys/kernel</text>
  <text x="450" y="650" font-size="12" fill="#c2185b">sysctl</text>
  <text x="600" y="650" font-size="12" fill="#c2185b">procfs</text>
  <text x="750" y="650" font-size="12" fill="#c2185b">sysfs</text>
  <text x="900" y="650" font-size="12" fill="#c2185b">Parameter Updates</text>
  
  <!-- Linux Kernel -->
  <rect x="300" y="720" width="600" height="50" fill="#37474f" stroke="#263238" stroke-width="3" rx="10"/>
  <text x="600" y="745" text-anchor="middle" font-size="18" font-weight="bold" fill="white">Linux Kernel</text>
  <text x="600" y="760" text-anchor="middle" font-size="12" fill="white">Runtime Parameter Adjustment</text>
  
  <!-- Arrows and Data Flow -->
  <!-- Workload to Monitors -->
  <path d="M 600 160 L 175 200" stroke="#666" stroke-width="2" fill="none" marker-end="url(#arrowhead)"/>
  <path d="M 600 160 L 475 200" stroke="#666" stroke-width="2" fill="none" marker-end="url(#arrowhead)"/>
  <path d="M 600 160 L 775 200" stroke="#666" stroke-width="2" fill="none" marker-end="url(#arrowhead)"/>
  
  <!-- Monitors to Optimization Engine -->
  <path d="M 175 320 L 450 360" stroke="#666" stroke-width="2" fill="none" marker-end="url(#arrowhead)"/>
  <path d="M 475 320 L 550 360" stroke="#666" stroke-width="2" fill="none" marker-end="url(#arrowhead)"/>
  <path d="M 775 320 L 650 360" stroke="#666" stroke-width="2" fill="none" marker-end="url(#arrowhead)"/>
  
  <!-- Optimization Engine to Kernel Interface -->
  <path d="M 600 560 L 600 600" stroke="#666" stroke-width="3" fill="none" marker-end="url(#arrowhead)"/>
  
  <!-- Kernel Interface to Kernel -->
  <path d="M 600 680 L 600 720" stroke="#666" stroke-width="3" fill="none" marker-end="url(#arrowhead)"/>
  
  <!-- Feedback Loop -->
  <path d="M 950 200 Q 1050 200 1050 400 Q 1050 600 950 600" stroke="#ff6b35" stroke-width="2" fill="none" stroke-dasharray="5,5" marker-end="url(#arrowhead-orange)"/>
  <text x="1060" y="405" font-size="12" fill="#ff6b35" font-weight="bold">Feedback Loop</text>
  
  <!-- Arrow markers -->
  <defs>
    <marker id="arrowhead" markerWidth="10" markerHeight="7" refX="9" refY="3.5" orient="auto">
      <polygon points="0 0, 10 3.5, 0 7" fill="#666"/>
    </marker>
    <marker id="arrowhead-orange" markerWidth="10" markerHeight="7" refX="9" refY="3.5" orient="auto">
      <polygon points="0 0, 10 3.5, 0 7" fill="#ff6b35"/>
    </marker>
  </defs>
  
  <!-- Legend -->
  <rect x="50" y="750" width="200" height="45" fill="white" stroke="#ccc" stroke-width="1" rx="5"/>
  <text x="60" y="770" font-size="12" font-weight="bold">Data Flow Legend:</text>
  <line x1="60" y1="775" x2="80" y2="775" stroke="#666" stroke-width="2"/>
  <text x="85" y="780" font-size="10">Primary Flow</text>
  <line x1="60" y1="785" x2="80" y2="785" stroke="#ff6b35" stroke-width="2" stroke-dasharray="3,3"/>
  <text x="85" y="790" font-size="10">Feedback</text>
</svg>